PathFileType	4	(X/Y/Z)	D:\TRACE\spotREDO_2-26-24\spot_justBody_Motion_3_5-v60.trc
DataRate	CameraRate	NumFrames	NumMarkers	Units	OrigDataRate	OrigDataStartFrame	OrigNumFrames
100.00	100.00	      35	9	mm	100.00	6126	      7000
Frame#	Time	front left toe			Front right toe			aft left toe			aft right toe			Arm			FL body			FR body			AL Body			AR Body			
		X1	Y1	Z1	X2	Y2	Z2	X3	Y3	Z3	X4	Y4	Z4	X5	Y5	Z5	X6	Y6	Z6	X7	Y7	Z7	X8	Y8	Z8	X9	Y9	Z9	

6126	61.250	-310.05716	27.96218	-132.60342	269.15158	28.18563	-172.04401	-262.57166	16.99966	409.76428	310.67981	22.58942	368.35092	-12.83376	814.77911	-295.56799	-96.64101	555.73364	-268.86743	59.23163	558.78894	-283.56009	-21.06141	552.70258	612.33624	120.16295	554.93542	600.62439	
6127	61.260	-309.94968	28.00730	-132.60313	269.10031	27.98179	-172.16837	-262.53290	17.15154	409.72406	310.88651	22.73128	368.36584	-12.33036	814.76318	-294.42865	-96.06929	555.61359	-267.94409	59.48777	558.86951	-282.88864	-20.79617	552.75610	613.15088	120.69994	554.90173	601.84570	
6128	61.270	-309.84586	28.02330	-132.58705	269.32941	28.04046	-172.02811	-262.52075	17.29968	409.68686	311.00000	22.83113	368.35513	-12.33029	814.94470	-293.58743	-95.89237	555.93591	-267.10184	60.13639	559.06128	-281.62524	-20.46402	552.69989	614.04901	120.94991	554.98566	602.48682	
6129	61.280	-309.81076	28.01114	-132.57117	269.40506	28.00513	-172.08714	-262.44196	17.40247	409.68021	311.16351	22.87510	368.33249	-11.56303	815.00867	-292.41611	-95.65663	555.98785	-265.97510	60.15987	559.11078	-280.93430	-20.04064	552.69067	615.07825	121.27903	554.99207	603.67975	
6130	61.290	-309.70914	27.99591	-132.58784	269.47577	27.93959	-172.09242	-262.31482	17.51148	409.68024	311.26248	22.95476	368.41632	-11.30265	815.12006	-291.55783	-95.66199	556.23236	-265.65549	60.21181	559.22943	-279.82001	-19.67041	552.64337	616.12042	121.70548	554.79254	604.43866	
6131	61.300	-309.60196	28.04169	-132.56647	269.39246	28.02299	-172.14346	-262.19824	17.68722	409.65082	311.44037	23.09172	368.44009	-10.74202	815.25909	-290.35562	-94.83430	556.21149	-264.12454	60.21255	559.38123	-278.94815	-19.33675	552.66406	617.04492	121.99133	554.91028	605.70532	
6132	61.310	-309.50629	28.01542	-132.55147	269.48694	27.98632	-172.19006	-262.11951	17.82633	409.60678	311.66446	23.16014	368.42734	-10.66879	815.39581	-289.51083	-94.57682	556.49402	-263.29938	61.25925	559.39606	-277.89380	-19.09856	552.68335	617.90613	121.77436	554.93872	606.23285	
6133	61.320	-309.36829	27.95393	-132.53680	269.61697	27.94985	-172.14998	-262.07700	17.86140	409.62549	311.77087	23.22413	368.41061	-10.08086	815.54224	-288.49057	-94.18890	556.59155	-262.16269	61.54891	559.42365	-277.01266	-18.66347	552.70129	618.87933	122.95762	554.90277	607.42139	
6134	61.330	-309.24686	27.96728	-132.53989	269.99704	27.67789	-172.03175	-262.06415	17.93821	409.64771	311.76520	23.24643	368.38992	-9.79320	815.54340	-287.54419	-93.81897	556.69287	-261.14914	61.85476	559.50122	-276.13556	-18.15195	552.66339	619.93958	123.19068	554.77539	608.30743	
6135	61.340	-309.05283	27.88043	-132.58009	269.83401	27.80975	-172.05775	-261.97107	17.92464	409.69559	311.81137	23.29426	368.39996	-9.19934	815.61035	-286.53751	-93.43915	556.64105	-260.15210	62.26091	559.42920	-274.89005	-17.73890	552.76154	620.76202	123.74812	554.87708	609.32355	
6136	61.350	-308.94714	27.80190	-132.63457	270.20068	27.56377	-171.95358	-261.86719	17.95889	409.73755	311.86792	23.29035	368.39371	-8.92096	815.71399	-285.57169	-92.97269	556.69238	-259.25739	62.61956	559.47656	-274.18161	-17.07398	552.77802	622.03864	124.28783	554.70294	610.47522	
6137	61.360	-308.75958	28.18617	-132.56793	270.36014	27.35195	-171.78244	-261.86005	17.96951	409.93961	311.93732	23.40064	368.46948	-8.23414	815.67816	-284.40994	-92.56583	556.64954	-257.87021	63.07764	559.47125	-272.96054	-16.63875	552.90051	623.05939	124.56204	554.81665	611.43408	
6138	61.370	-306.27893	33.32637	-129.82915	270.61761	26.86471	-171.96181	-261.96344	17.77473	409.77023	312.20422	23.59299	368.71460	-8.04386	815.84723	-283.46017	-92.18055	556.61188	-257.22192	63.64252	559.90704	-272.06442	-16.48103	552.85962	623.97034	124.95438	554.90405	612.53412	
6139	61.380	-304.09222	43.76603	-125.52908	270.79160	26.87787	-171.73788	-261.68356	17.78255	409.89505	312.46533	23.67228	368.92709	-8.41263	815.91553	-282.40244	-91.30580	556.26160	-256.17493	64.61298	560.34393	-271.02084	-16.30095	552.49664	624.91876	124.84127	555.08112	613.43585	
6140	61.390	-301.05542	55.11983	-121.44933	270.75098	26.87915	-171.74959	-261.27969	17.81672	409.89874	312.52133	23.73903	368.98334	-8.77621	815.97406	-281.50940	-90.75800	556.16931	-255.64812	64.83266	560.26489	-270.25674	-15.92470	552.26727	625.56909	125.09626	555.29736	613.99091	
6141	61.400	-301.74136	66.43782	-119.88156	270.70355	26.82671	-171.80331	-261.17258	18.13884	409.93552	312.57452	23.76471	368.98480	-8.75649	815.82587	-280.74185	-90.25344	555.82104	-254.70483	64.97147	560.27875	-269.37326	-15.39926	552.43622	626.47522	125.90965	555.36890	614.99982	
6142	61.410	-301.75446	78.38668	-122.15532	270.67804	26.87720	-171.91531	-261.06992	18.42031	409.87570	312.82486	23.77447	368.99307	-8.27445	815.70166	-280.26639	-90.22667	555.83752	-253.81271	64.85046	560.21497	-268.52521	-14.60839	552.58923	627.33374	126.74924	555.69580	615.72571	
6143	61.420	-301.50797	90.32229	-125.39529	270.67221	26.93020	-171.86423	-260.99170	18.56047	409.85785	312.97488	23.79910	369.01678	-7.97469	815.68890	-279.25095	-90.50079	556.01465	-252.83607	64.91544	560.20239	-267.89648	-13.96723	552.72723	628.21027	127.66321	555.71655	616.67725	
6144	61.430	-299.00751	101.59506	-127.61096	270.73019	26.96700	-171.86736	-260.96643	18.58245	409.85849	312.99771	23.71457	368.97061	-8.09550	815.95477	-278.45200	-90.25179	556.20477	-251.79173	65.26285	560.46063	-266.93295	-13.24702	552.53717	629.07037	128.15791	555.37402	617.31689	
6145	61.440	-295.43039	110.98036	-126.01018	270.62585	26.91475	-171.93381	-260.93253	18.52282	409.89517	313.12564	23.67272	369.01352	-7.85053	816.28156	-277.20953	-90.25667	556.72925	-251.36935	65.05360	560.70929	-266.22241	-12.77313	551.94922	629.80365	128.10065	555.04224	617.99219	
6146	61.450	-292.97931	120.05664	-123.16019	270.67096	26.95848	-171.92766	-260.97971	18.49915	409.93344	313.12839	23.65296	369.09631	-8.02804	816.69641	-276.35538	-89.62818	556.93604	-250.53783	65.70174	561.05035	-265.65509	-12.38367	550.72443	630.15851	128.43915	554.62549	618.70221	
6147	61.460	-291.01425	128.55676	-120.09801	270.71704	26.97650	-171.78976	-260.99918	18.50990	409.96103	313.04947	23.72777	369.13199	-7.94718	816.86395	-275.54449	-89.46861	557.02435	-250.30978	66.33781	561.12091	-264.86191	-12.37111	550.64838	630.74585	128.43109	554.47046	619.41858	
6148	61.470	-289.89761	135.50299	-116.82362	270.70602	26.94235	-171.78949	-261.00998	18.63391	409.94412	313.02875	23.80027	369.16080	-7.43938	816.83203	-274.77417	-88.96087	556.87793	-249.37292	66.68784	561.04431	-264.19199	-12.20786	550.56989	631.35468	128.62950	554.41461	620.10114	
6149	61.480	-288.76813	141.30264	-116.29460	270.70648	26.89620	-171.65486	-260.97620	18.66144	409.91452	313.01227	23.79855	369.17502	-6.86965	816.83038	-274.28305	-89.23492	557.12274	-249.19035	66.77577	560.94647	-263.64398	-11.99417	550.57874	632.00421	128.74826	554.31451	620.83667	
6150	61.490	-287.28778	145.20241	-116.32103	270.71457	26.85641	-171.57925	-261.00146	18.61588	409.92487	313.03952	23.76517	369.19812	-6.04142	816.73474	-273.68536	-88.81757	556.95825	-248.30234	67.07800	560.91968	-263.02600	-11.96202	550.63745	632.71167	128.84416	554.16150	621.34753	
6151	61.500	-284.81601	146.05280	-115.19042	270.73569	26.86137	-171.49197	-261.01559	18.59267	409.99420	313.02823	23.78524	369.26288	-5.74097	816.57678	-273.13455	-88.24536	556.83746	-247.37894	67.32367	560.91418	-262.13132	-12.11621	550.51514	633.33600	128.81041	554.30798	622.07794	
6152	61.510	-282.14713	145.56094	-114.04057	270.71304	26.84233	-171.48236	-260.97650	18.55956	409.98285	313.07916	23.75906	369.32578	-5.65271	816.73413	-272.47079	-88.16458	556.94574	-246.82686	67.66145	561.01202	-261.56494	-12.06980	550.41321	634.04956	128.80499	554.18677	622.82977	
6153	61.520	-279.48035	143.92357	-112.00252	270.71051	26.82713	-171.39307	-261.02411	18.61527	409.96378	313.05936	23.77109	369.42517	-5.56734	816.87543	-271.77090	-87.66970	556.90240	-246.20454	67.83006	561.08600	-261.10114	-12.04204	550.23029	634.46179	128.71931	554.15204	623.36218	
6154	61.530	-277.18344	142.48938	-109.05067	270.75314	26.77131	-171.31036	-261.02777	18.56990	409.99002	313.06256	23.80494	369.53745	-5.48022	816.77997	-271.34299	-87.39091	556.77045	-245.74380	68.42469	561.16650	-260.43903	-12.05383	550.14575	634.91766	128.77513	554.12646	623.79846	
6155	61.540	-274.85901	141.74365	-106.26797	270.77109	26.75650	-171.21593	-261.02811	18.56274	409.97623	313.09000	23.79037	369.62454	-5.38561	816.51367	-270.77829	-87.14571	556.50787	-245.42238	68.66174	560.97382	-259.91690	-12.09283	549.97186	635.45709	128.68663	554.21741	624.52173	
6156	61.550	-273.19547	141.59138	-103.86755	270.69485	26.66832	-171.16553	-261.09720	18.51089	409.99454	313.01373	23.82415	369.67953	-5.31458	816.26239	-270.39792	-87.40696	556.60028	-245.52267	68.76437	560.82190	-259.57541	-12.22846	549.89801	635.97998	128.62431	554.08496	625.09009	
6157	61.560	-271.53549	141.93634	-102.12785	270.55414	26.56426	-171.16898	-261.35660	18.51880	410.06924	312.78912	23.70630	369.76797	-5.21291	816.00830	-270.02359	-87.34799	556.42969	-244.95271	68.75698	560.68384	-259.19800	-12.13619	549.90283	636.43933	128.56190	553.94531	625.39655	
6158	61.570	-269.68649	141.81366	-100.62103	270.36182	26.49915	-171.15660	-261.53262	18.56711	410.15051	312.52896	23.61483	369.77463	-5.09878	815.92548	-269.57114	-87.31763	556.39612	-244.48683	68.86938	560.58258	-258.74417	-12.12658	549.81769	636.73657	128.92291	553.71832	625.68878	
6159	61.580	-267.43668	141.44073	-99.07889	270.25015	26.53156	-171.12245	-261.72601	18.62265	410.21594	312.42099	23.56908	369.84891	-4.98586	816.01801	-269.10812	-87.30699	556.55841	-244.21581	68.76620	560.44629	-258.24194	-12.01396	549.68604	637.28333	128.74721	553.87201	626.09106	
6160	61.590	-265.13223	139.37488	-97.91099	270.06445	26.53616	-171.11247	-261.90671	18.61473	410.22290	312.33398	23.59441	369.87805	-4.89556	816.06305	-268.63263	-86.95893	556.22290	-243.24554	68.53826	560.40808	-257.64865	-12.12695	549.61285	637.65314	128.73218	553.82300	626.79572	
